<svg width="14" height="14" viewBox="0 0 14 14" fill="none" xmlns="http://www.w3.org/2000/svg">
<path d="M8.02803 0.61095C7.39273 0.240808 6.60748 0.240808 5.97218 0.61095C5.63092 0.809779 5.39703 1.14098 5.20016 1.48028C5.00046 1.82444 4.78041 2.28561 4.51068 2.8509L4.49781 2.87786C4.31551 3.2599 4.27284 3.33662 4.22515 3.39217C4.15311 3.47608 4.06243 3.54197 3.96037 3.58455C3.8928 3.61274 3.80664 3.62961 3.38697 3.68493L3.35734 3.68884C2.73637 3.77069 2.22978 3.83746 1.84075 3.92103C1.45722 4.00341 1.06996 4.12351 0.775404 4.38663C0.227059 4.87646 -0.015595 5.62327 0.140112 6.34186C0.223754 6.72786 0.466468 7.05265 0.728324 7.34473C0.993926 7.641 1.36451 7.99277 1.81876 8.42397L1.84046 8.44458C2.14747 8.73601 2.20726 8.8003 2.24535 8.86282C2.30289 8.95727 2.33753 9.06387 2.34649 9.1741C2.35242 9.24707 2.34184 9.33422 2.26477 9.75045L2.25933 9.77983C2.14528 10.3957 2.05224 10.8981 2.0115 11.2939C1.97134 11.6842 1.96589 12.0896 2.12511 12.451C2.42151 13.1239 3.05679 13.5855 3.78832 13.6594C4.18128 13.6992 4.56517 13.5687 4.92388 13.4099C5.28773 13.2489 5.73681 13.0051 6.2873 12.7063L6.31356 12.6921C6.6856 12.4902 6.76522 12.4532 6.83646 12.4363C6.94406 12.4107 7.05615 12.4107 7.16375 12.4363C7.23499 12.4532 7.3146 12.4902 7.68664 12.6921L7.7129 12.7063C8.26336 13.0051 8.71249 13.2489 9.07633 13.4099C9.43504 13.5687 9.81893 13.6992 10.2119 13.6594C10.9434 13.5855 11.5787 13.1239 11.8751 12.451C12.0343 12.0896 12.0289 11.6842 11.9887 11.2939C11.948 10.8981 11.8549 10.3957 11.7409 9.77987L11.7354 9.75045C11.6584 9.33422 11.6478 9.24707 11.6537 9.1741C11.6627 9.06387 11.6973 8.95727 11.7549 8.86282C11.793 8.8003 11.8527 8.73601 12.1597 8.44458L12.1814 8.42406C12.6357 7.99282 13.0063 7.64102 13.2719 7.34473C13.5337 7.05265 13.7765 6.72786 13.8601 6.34186C14.0158 5.62327 13.7731 4.87646 13.2248 4.38663C12.9303 4.12351 12.543 4.00341 12.1595 3.92103C11.7704 3.83746 11.2638 3.77069 10.6429 3.68884L10.6132 3.68493C10.1936 3.62961 10.1074 3.61274 10.0398 3.58455C9.93778 3.54197 9.8471 3.47608 9.77506 3.39217C9.72736 3.33662 9.6847 3.2599 9.5024 2.87786L9.48953 2.85089C9.2198 2.28561 8.99975 1.82444 8.80005 1.48028C8.60318 1.14098 8.36929 0.809779 8.02803 0.61095Z" fill="#FDB022"/>
</svg>
