<svg width="16" height="15" viewBox="0 0 16 15" fill="none" xmlns="http://www.w3.org/2000/svg">
<path d="M3.99984 3.00002C3.99984 1.71136 5.04451 0.666687 6.33317 0.666687C6.98607 0.666687 7.57633 0.934843 7.99984 1.36703C8.42334 0.934843 9.01361 0.666687 9.6665 0.666687C10.9552 0.666687 11.9998 1.71136 11.9998 3.00002C11.9998 3.35789 11.9193 3.69694 11.7753 4.00002H13.6665C14.587 4.00002 15.3332 4.74621 15.3332 5.66669C15.3332 6.58716 14.587 7.33335 13.6665 7.33335H8.6665V4.00002H9.6665C10.2188 4.00002 10.6665 3.55231 10.6665 3.00002C10.6665 2.44774 10.2188 2.00002 9.6665 2.00002C9.11422 2.00002 8.6665 2.44774 8.6665 3.00002V4.00002H7.33317V3.00002C7.33317 2.44774 6.88546 2.00002 6.33317 2.00002C5.78089 2.00002 5.33317 2.44774 5.33317 3.00002C5.33317 3.55231 5.78089 4.00002 6.33317 4.00002H7.33317V7.33335H2.33317C1.4127 7.33335 0.666504 6.58716 0.666504 5.66669C0.666504 4.74621 1.4127 4.00002 2.33317 4.00002H4.22438C4.0804 3.69694 3.99984 3.35789 3.99984 3.00002Z" fill="#D92D20"/>
<path d="M2.6665 8.66669H7.33317L7.33317 14.6667H5.83896C5.30232 14.6667 4.85941 14.6667 4.49862 14.6372C4.12389 14.6066 3.77942 14.5409 3.45586 14.376C2.9541 14.1204 2.54615 13.7124 2.29049 13.2107C2.12563 12.8871 2.05992 12.5426 2.0293 12.1679C1.99982 11.8071 1.99983 11.3642 1.99984 10.8276V9.33335C1.99984 8.96516 2.29831 8.66669 2.6665 8.66669Z" fill="#D92D20"/>
<path d="M8.6665 8.66669L8.6665 14.6667H10.1607C10.6974 14.6667 11.1403 14.6667 11.5011 14.6372C11.8758 14.6066 12.2203 14.5409 12.5438 14.376C13.0456 14.1204 13.4535 13.7124 13.7092 13.2107C13.874 12.8871 13.9398 12.5426 13.9704 12.1679C13.9999 11.8071 13.9998 11.3642 13.9998 10.8276V9.33335C13.9998 8.96516 13.7014 8.66669 13.3332 8.66669H8.6665Z" fill="#D92D20"/>
</svg>
