<svg width="22" height="20" viewBox="0 0 22 20" fill="none" xmlns="http://www.w3.org/2000/svg">
<path d="M14.8196 18.0838C14.8346 17.9564 14.8225 17.8272 14.7839 17.7047C14.7454 17.5823 14.6814 17.4694 14.5961 17.3735C14.5108 17.2776 14.4062 17.2008 14.2891 17.1483C14.172 17.0957 14.0451 17.0685 13.9168 17.0685C13.7884 17.0685 13.6615 17.0957 13.5444 17.1483C13.4273 17.2008 13.3227 17.2776 13.2374 17.3735C13.1521 17.4694 13.0881 17.5823 13.0496 17.7047C13.0111 17.8272 12.9989 17.9564 13.0139 18.0838C13.0399 18.305 13.1462 18.509 13.3127 18.657C13.4791 18.805 13.6941 18.8867 13.9168 18.8867C14.1395 18.8867 14.3544 18.805 14.5209 18.657C14.6873 18.509 14.7936 18.305 14.8196 18.0838Z" fill="#FF666C" stroke="#FF666C" stroke-width="1.5" stroke-linecap="round" stroke-linejoin="round"/>
<path d="M5.40366 18.0841C5.40366 17.9648 5.38015 17.8465 5.33446 17.7362C5.28877 17.626 5.22181 17.5257 5.13739 17.4413C5.05298 17.3569 4.95276 17.2899 4.84246 17.2443C4.73217 17.1986 4.61395 17.175 4.49457 17.175C4.37519 17.175 4.25697 17.1986 4.14668 17.2443C4.03638 17.2899 3.93616 17.3569 3.85175 17.4413C3.76733 17.5257 3.70037 17.626 3.65468 17.7362C3.60899 17.8465 3.58548 17.9648 3.58548 18.0841C3.58548 18.2035 3.60899 18.3217 3.65468 18.432C3.70037 18.5423 3.76733 18.6425 3.85175 18.727C3.93616 18.8114 4.03638 18.8783 4.14668 18.924C4.25697 18.9697 4.37519 18.9932 4.49457 18.9932C4.61395 18.9932 4.73217 18.9697 4.84246 18.924C4.95276 18.8783 5.05298 18.8114 5.13739 18.727C5.22181 18.6425 5.28877 18.5423 5.33446 18.432C5.38015 18.3217 5.40366 18.2035 5.40366 18.0841Z" fill="#FF666C" stroke="#FF666C" stroke-width="1.5" stroke-linecap="round" stroke-linejoin="round"/>
<path d="M2.47437 14.6945H15.3246L17.7347 1.00689H21" stroke="#FF666C" stroke-width="1.5" stroke-linecap="round" stroke-linejoin="round"/>
<path d="M16.9239 3.43157H1.37488C1.31985 3.421 1.26332 3.421 1.20829 3.43157L1.00837 3.57683C0.998474 3.6285 0.998474 3.68159 1.00837 3.73326C0.997251 3.79232 0.997251 3.85297 1.00837 3.91203L2.45221 11.186C2.46806 11.2777 2.51592 11.3607 2.58717 11.4201C2.65843 11.4795 2.74841 11.5114 2.84094 11.51H15.3246" stroke="#FF666C" stroke-width="1.5" stroke-linecap="round" stroke-linejoin="round"/>
</svg>
