<svg width="19" height="19" viewBox="0 0 19 19" fill="none" xmlns="http://www.w3.org/2000/svg">
<path d="M11.2394 9.46992V6.96992M11.2394 6.96992V4.46992M11.2394 6.96992H8.73942M11.2394 6.96992H13.7394M1.66748 1.49954H2.68802C3.50809 1.49954 3.91812 1.49954 4.24809 1.65034C4.53887 1.78323 4.7853 1.99696 4.95798 2.26603C5.15393 2.57136 5.21191 2.97727 5.32789 3.78908L6.34041 10.8767C6.45638 11.6885 6.51436 12.0945 6.71031 12.3998C6.883 12.6688 7.12942 12.8825 7.42021 13.0155C7.75017 13.1662 8.16021 13.1662 8.98027 13.1662H11.8939C13.582 13.1662 14.426 13.1662 15.0979 12.8515C15.6898 12.5743 16.1871 12.1291 16.528 11.5715C16.915 10.9385 17.0082 10.0997 17.1946 8.42214C17.2195 8.19843 17.2447 7.97133 17.2706 7.73858C17.3508 7.01603 17.3446 6.35631 17.3446 6.35631M8.33415 16.4995C8.33415 16.9598 7.96105 17.3329 7.50081 17.3329C7.04058 17.3329 6.66748 16.9598 6.66748 16.4995C6.66748 16.0393 7.04058 15.6662 7.50081 15.6662C7.96105 15.6662 8.33415 16.0393 8.33415 16.4995ZM15.8341 16.4995C15.8341 16.9598 15.4611 17.3329 15.0008 17.3329C14.5406 17.3329 14.1675 16.9598 14.1675 16.4995C14.1675 16.0393 14.5406 15.6662 15.0008 15.6662C15.4611 15.6662 15.8341 16.0393 15.8341 16.4995Z" stroke="#767676" stroke-width="2" stroke-linecap="round" stroke-linejoin="round"/>
</svg>
